Coordinates
version=1
nRows=14
nColumns=24
inDegrees=yes

Units are S.I. units (second, meters, Newtons, ...)
Angles are in degrees.

endheader
time	pelvis_tilt	pelvis_list	pelvis_rotation	pelvis_tx	pelvis_ty	pelvis_tz	hip_flexion_r	hip_adduction_r	hip_rotation_r	knee_angle_r	ankle_angle_r	subtalar_angle_r	mtp_angle_r	hip_flexion_l	hip_adduction_l	hip_rotation_l	knee_angle_l	ankle_angle_l	subtalar_angle_l	mtp_angle_l	lumbar_extension	lumbar_bending	lumbar_rotation
      4.13500000	     -7.95548213	     -8.04691778	      8.54641656	     -0.14237381	     -0.03307762	      0.69761394	     27.99716024	      6.79091411	     -2.25091411	    -32.33487838	      4.39633238	     -2.52394490	     15.00697717	     19.01970113	     -6.72677055	      4.32023951	    -67.61553373	    -25.12539120	     15.84082103	     43.07717002	      8.36318197	     14.31197789	     -8.76404925
      4.14000000	     -7.91513905	     -8.08798152	      8.34198444	     -0.13500198	     -0.03164041	      0.69822036	     27.16115911	      7.09997314	     -1.92267853	    -31.75683479	      4.61350825	     -2.71366658	     14.42805263	     20.05966166	     -6.78885172	      3.97869338	    -68.66670688	    -24.42270728	     15.13959594	     42.65519315	      8.27372709	     14.38820764	     -8.33801214
      4.14500000	     -7.84707789	     -8.11046797	      8.17683338	     -0.12777452	     -0.03026539	      0.69873224	     26.30988643	      7.33610424	     -1.70677592	    -31.20151075	      4.92333549	     -2.66741547	     14.00368139	     21.08588014	     -6.82879889	      3.65243967	    -69.67328156	    -23.78466665	     14.23370869	     41.92741069	      8.13790700	     14.44396415	     -8.02171812
      4.15000000	     -7.79813322	     -8.13975886	      7.98299828	     -0.12041714	     -0.02889536	      0.69923102	     25.44064864	      7.57594225	     -1.45619488	    -30.59349450	      5.26230707	     -2.50377601	     13.57712874	     22.09739570	     -6.88209893	      3.33078040	    -70.60767122	    -23.03559907	     13.38651136	     40.66303114	      8.04334619	     14.51254321	     -7.66101332
      4.15500000	     -7.75618662	     -8.14950896	      7.80034015	     -0.11312937	     -0.02753027	      0.69975698	     24.57336117	      7.78896638	     -1.21278109	    -29.95711920	      5.47694147	     -2.48736421	     13.34209807	     23.10297546	     -6.91946669	      3.00566176	    -71.42536422	    -22.51250358	     12.27254209	     39.67300519	      7.94373227	     14.55162185	     -7.33032683
      4.16000000	     -7.72241068	     -8.13822586	      7.64400178	     -0.10588582	     -0.02619633	      0.70033529	     23.71053638	      7.97371918	     -0.97837232	    -29.30296785	      5.62787974	     -2.60798895	     13.18837755	     24.10128406	     -6.93404682	      2.70988791	    -72.12387931	    -22.16578653	     11.04160439	     39.02627966	      7.84833110	     14.54610242	     -7.07042516
      4.16500000	     -7.69173057	     -8.10795556	      7.40837014	     -0.09855432	     -0.02489254	      0.70087764	     22.83745534	      8.14070399	     -0.69310661	    -28.65385118	      5.82607616	     -2.50983738	     12.96278067	     25.05485566	     -6.95496223	      2.34267193	    -72.79071278	    -21.48260971	      9.96571286	     37.45228709	      7.74934067	     14.55498481	     -6.67981444
      4.17000000	     -7.67530540	     -8.05569504	      7.19871163	     -0.09130180	     -0.02365419	      0.70149450	     21.98454776	      8.28089621	     -0.40934083	    -28.00332986	      5.98152719	     -2.55400153	     12.75199682	     26.01070034	     -6.95438065	      2.00812512	    -73.34376490	    -20.94698249	      8.85800402	     36.32680756	      7.65129000	     14.51693339	     -6.35124629
      4.17500000	     -7.67846761	     -7.94954455	      7.00526984	     -0.08404919	     -0.02243032	      0.70215113	     21.14146243	      8.36557857	     -0.06811416	    -27.34388422	      6.08480592	     -2.70754688	     12.59517163	     26.94756539	     -6.88909887	      1.70190034	    -73.76171927	    -20.55111785	      7.76390483	     35.58132085	      7.57189864	     14.40531198	     -6.06821005
      4.18000000	     -7.66282752	     -7.84556603	      6.74171192	     -0.07682626	     -0.02130879	      0.70285386	     20.29806460	      8.45578407	      0.25960743	    -26.72353467	      6.25030697	     -2.70868995	     12.43099173	     27.83609877	     -6.87205526	      1.33025834	    -74.15598059	    -19.84547935	      6.85775393	     34.22513592	      7.44143981	     14.31662204	     -5.66456594
      4.18500000	     -7.69903504	     -7.67203777	      6.49779721	     -0.06954586	     -0.02017901	      0.70358068	     19.48935707	      8.47090372	      0.65708123	    -26.08299264	      6.32221105	     -2.86594899	     12.29311363	     28.72304322	     -6.76756915	      0.98466905	    -74.37550091	    -19.39155996	      5.93120622	     33.52637202	      7.38135299	     14.13399901	     -5.34035022
      4.19000000	     -7.72309463	     -7.48247333	      6.22453554	     -0.06232967	     -0.01913125	      0.70435288	     18.68172505	      8.47396383	      1.09219146	    -25.46823125	      6.43346246	     -2.98231274	     12.14238430	     29.57267308	     -6.67126050	      0.61551831	    -74.53327650	    -18.82846106	      5.12016571	     32.61089048	      7.28201681	     13.93918779	     -4.95992533
      4.19500000	     -7.75403045	     -7.28046625	      5.94229639	     -0.05514575	     -0.01816261	      0.70512987	     17.89291199	      8.45719843	      1.53556337	    -24.87385599	      6.55867276	     -3.08221195	     11.94847266	     30.40336721	     -6.56989199	      0.25185695	    -74.61290875	    -18.19773088	      4.43234478	     31.60731492	      7.18198204	     13.73142232	     -4.56574256
      4.20000000	     -7.80726250	     -7.07859343	      5.64177283	     -0.04802326	     -0.01731021	      0.70596108	     17.15374187	      8.43582221	      1.93939796	    -24.31203235	      6.66022268	     -3.24831946	     11.77067704	     31.23247931	     -6.49140573	     -0.12548944	    -74.58540196	    -17.66863874	      3.71913783	     30.99517426	      7.09206409	     13.51726584	     -4.16184892
